<svg xmlns="http://www.w3.org/2000/svg" width="64" height="64" viewBox="0 0 64 64"><g transform="translate(-1642.371 -140)"><circle cx="32" cy="32" r="32" transform="translate(1642.371 140)" fill="#eee5e9"/><g transform="translate(1658.466 148)"><path d="M30.81,27.18A14.9,14.9,0,1,1,1,27.18C1,20.09,12.07,5.67,15.14,1.8a1,1,0,0,1,1.55,0C19.76,5.67,30.81,20.09,30.81,27.18Z" fill="none" stroke="#333" stroke-linecap="round" stroke-linejoin="round" stroke-width="2"/><line y2="46" transform="translate(15.91 1)" fill="none" stroke="#333" stroke-linecap="round" stroke-linejoin="round" stroke-width="2"/><line x1="14.83" y2="9.96" transform="translate(15.82 26.4)" fill="none" stroke="#333" stroke-linecap="round" stroke-linejoin="round" stroke-width="2"/><line x1="11.78" y2="7.92" transform="translate(15.92 19.71)" fill="none" stroke="#333" stroke-linecap="round" stroke-linejoin="round" stroke-width="2"/><line x1="7.72" y2="5.19" transform="translate(16.42 13.1)" fill="none" stroke="#333" stroke-linecap="round" stroke-linejoin="round" stroke-width="2"/><line x2="14.82" y2="9.96" transform="translate(1 26.4)" fill="none" stroke="#333" stroke-linecap="round" stroke-linejoin="round" stroke-width="2"/><line x2="11.78" y2="7.92" transform="translate(3.95 19.71)" fill="none" stroke="#333" stroke-linecap="round" stroke-linejoin="round" stroke-width="2"/><line x2="7.72" y2="5.19" transform="translate(7.51 13.1)" fill="none" stroke="#333" stroke-linecap="round" stroke-linejoin="round" stroke-width="2"/></g></g></svg>