<svg xmlns="http://www.w3.org/2000/svg" width="64" height="64" viewBox="0 0 64 64"><g transform="translate(-1642.371 -140)"><circle cx="32" cy="32" r="32" transform="translate(1642.371 140)" fill="#eee5e9"/><g transform="translate(1655.371 150)"><path d="M35,18.8c0-3.535-2.128-6.4-4.741-6.4s-4.741,2.863-4.741,6.4h2.37c0-1.767,1.052-3.2,2.37-3.2s2.37,1.42,2.37,3.2S31.575,22,30.255,22H3v3.2H30.261C32.878,25.2,35,22.327,35,18.8ZM24.333,12.4c0-3.535-2.128-6.4-4.741-6.4s-4.741,2.863-4.741,6.4v0h2.37c0-1.767,1.052-3.2,2.37-3.2s2.37,1.42,2.37,3.2-1.063,3.2-2.377,3.2H5.37v3.2H19.6c2.616,0,4.736-2.873,4.736-6.4Zm5.926,20.8c0,2.651-1.6,4.8-3.556,4.8h0c-1.964,0-3.556-2.147-3.556-4.786V33.2h2.37c0,.884.526,1.6,1.185,1.6h0c.655,0,1.185-.71,1.185-1.6h0c0-.884-.532-1.6-1.194-1.6H10.111V28.4H26.7c1.964,0,3.556,2.154,3.556,4.8Z" transform="translate(0 0)" fill-rule="evenodd"/></g></g></svg>