<svg xmlns="http://www.w3.org/2000/svg" width="64" height="64" viewBox="0 0 64 64"><g transform="translate(-1642.371 -140)"><circle cx="32" cy="32" r="32" transform="translate(1642.371 140)" fill="#eee5e9"/><g transform="translate(1658.371 156)"><path d="M0,0H32V32H0Z" fill="none"/><path d="M16,31c6.351,0,11.5-4.607,11.5-10.291a9.4,9.4,0,0,0-.767-3.389q-3.834,3.39-5.827,3.389c6.126-9.6,2.76-13.721-6.44-19.209.767,6.86-4.287,9.981-6.345,11.714A9.548,9.548,0,0,0,5.31,24.5,11.561,11.561,0,0,0,16,31ZM17.089,6.625c4.97,3.773,4.994,6.705,1.155,12.725-1.167,1.829.31,4.1,2.663,4.1a7.444,7.444,0,0,0,3.249-.816,8.246,8.246,0,0,1-7.485,5.592,8.6,8.6,0,0,1-8.377-4.465,6.992,6.992,0,0,1,1.929-8.553c.193-.162,1.173-.94,1.216-.974.65-.521,1.185-.984,1.714-1.49a14.094,14.094,0,0,0,3.935-6.122Z" transform="translate(0)"/></g></g></svg>